<!DOCTYPE svg PUBLIC "-//W3C//DTD SVG 1.1//EN" "http://www.w3.org/Graphics/SVG/1.1/DTD/svg11.dtd">
<!-- Uploaded to: SVG Repo, www.svgrepo.com, Transformed by: SVG Repo Mixer Tools -->
<svg height="800px" width="800px" version="1.1" id="Layer_1" xmlns="http://www.w3.org/2000/svg" xmlns:xlink="http://www.w3.org/1999/xlink" viewBox="0 0 512 512" xml:space="preserve" fill="#000000" stroke="#000000">
<g id="SVGRepo_bgCarrier" stroke-width="0"/>
<g id="SVGRepo_tracerCarrier" stroke-linecap="round" stroke-linejoin="round"/>
<g id="SVGRepo_iconCarrier"> <path style="fill:#FFDC64;" d="M509.699,256c-14.366,81.476-92.062,147.525-173.538,147.525S200.282,337.476,214.648,256 s92.062-147.525,173.538-147.525S524.066,174.524,509.699,256z"/> <path style="fill:#FFC850;" d="M342.28,377.492c-32.415,0-60.856-12.619-80.085-35.525c-19.61-23.382-27.212-54.441-21.381-87.475 c11.67-66.161,75.034-119.983,141.255-119.983c32.415,0,60.856,12.619,80.085,35.534c19.61,23.373,27.203,54.433,21.373,87.466l0,0 C471.864,323.67,408.5,377.492,342.28,377.492z"/> <path style="fill:#FFF082;" d="M382.068,151.864c-58.187,0-113.89,47.39-124.17,105.644c-4.915,27.89,1.331,53.924,17.593,73.296 c15.873,18.916,39.593,29.33,66.788,29.33c58.194,0,113.89-47.39,124.161-105.644l0,0c4.915-27.89-1.331-53.915-17.585-73.296 C432.983,162.28,409.263,151.864,382.068,151.864z"/> <path style="fill:#E7B452;" d="M405.119,208.517c-5.329-6.358-13.648-10.654-23.579-12.39l1.418-8.042 c0.839-4.721-2.314-9.22-7.033-10.051c-4.737-0.882-9.229,2.314-10.051,7.033l-1.885,10.695 c-20.363,2.403-37.259,14.429-39.902,29.441c-3.899,22.043,13.721,31.278,28.26,36.587l-6.523,36.989 c-6.667-1.175-11.134-3.876-13.297-6.448c-1.967-2.347-1.907-4.279-1.687-5.534c0.839-4.721-2.314-9.22-7.033-10.051 c-4.712-0.873-9.229,2.314-10.051,7.033c-1.245,7.017,0.703,14.017,5.475,19.703c5.329,6.358,13.648,10.654,23.579,12.39 l-1.418,8.042c-0.839,4.721,2.314,9.22,7.033,10.051c0.509,0.093,1.017,0.136,1.517,0.136c4.136,0,7.797-2.958,8.534-7.169 l1.885-10.695c20.363-2.403,37.259-14.429,39.902-29.441c3.897-22.042-13.724-31.284-28.26-36.588l6.523-36.987 c6.667,1.175,11.134,3.876,13.297,6.448c1.967,2.347,1.907,4.279,1.687,5.534c-0.839,4.721,2.314,9.22,7.034,10.051 c4.703,0.865,9.22-2.314,10.051-7.033C411.839,221.204,409.89,214.204,405.119,208.517z M341.17,228.221 c0.996-5.629,8.94-11.735,19.619-14.32l-5.356,30.375C342.179,238.853,340.052,234.564,341.17,228.221z M383.178,283.779 c-0.996,5.629-8.94,11.734-19.619,14.32l5.356-30.375C382.169,273.147,384.296,277.436,383.178,283.779z"/> <path style="fill:#D5DCED;" d="M173.559,264.678H8.678C3.881,264.678,0,260.797,0,256c0-4.797,3.881-8.678,8.678-8.678h164.881 c4.797,0,8.678,3.881,8.678,8.678C182.237,260.797,178.356,264.678,173.559,264.678z"/> <path style="fill:#E4EAF6;" d="M190.915,221.288H60.746c-4.797,0-8.678-3.881-8.678-8.678s3.881-8.678,8.678-8.678h130.169 c4.797,0,8.678,3.881,8.678,8.678S195.712,221.288,190.915,221.288z"/> <g> <path style="fill:#F1F4FB;" d="M216.949,177.898h-86.78c-4.797,0-8.678-3.881-8.678-8.678s3.881-8.678,8.678-8.678h86.78 c4.797,0,8.678,3.881,8.678,8.678S221.746,177.898,216.949,177.898z"/> <path style="fill:#F1F4FB;" d="M242.983,143.186h-26.034c-4.797,0-8.678-3.881-8.678-8.678c0-4.797,3.881-8.678,8.678-8.678h26.034 c4.797,0,8.678,3.881,8.678,8.678C251.661,139.305,247.78,143.186,242.983,143.186z"/> <path style="fill:#F1F4FB;" d="M208.271,386.17h-17.356c-4.797,0-8.678-3.881-8.678-8.678c0-4.797,3.881-8.678,8.678-8.678h17.356 c4.797,0,8.678,3.881,8.678,8.678C216.949,382.288,213.068,386.17,208.271,386.17z"/> <path style="fill:#F1F4FB;" d="M190.915,351.458h-60.746c-4.797,0-8.678-3.881-8.678-8.678s3.881-8.678,8.678-8.678h60.746 c4.797,0,8.678,3.881,8.678,8.678S195.712,351.458,190.915,351.458z"/> </g> <path style="fill:#E4EAF6;" d="M173.559,308.068H60.746c-4.797,0-8.678-3.881-8.678-8.678s3.881-8.678,8.678-8.678h112.814 c4.797,0,8.678,3.881,8.678,8.678S178.356,308.068,173.559,308.068z"/> </g>
</svg>