<?xml version="1.0" standalone="no"?>
<!DOCTYPE svg PUBLIC "-//W3C//DTD SVG 20010904//EN"
 "http://www.w3.org/TR/2001/REC-SVG-20010904/DTD/svg10.dtd">
<svg version="1.0" xmlns="http://www.w3.org/2000/svg"
 width="300.000000pt" height="87.000000pt" viewBox="0 0 300.000000 87.000000"
 preserveAspectRatio="xMidYMid meet">

<g transform="translate(0.000000,87.000000) scale(0.100000,-0.100000)"
fill="#000000" stroke="none">
<path d="M1788 733 c7 -3 16 -2 19 1 4 3 -2 6 -13 5 -11 0 -14 -3 -6 -6z"/>
<path d="M1635 711 c-81 -24 -138 -54 -193 -104 -178 -164 -57 -400 245 -478
98 -25 270 -27 358 -4 74 19 175 67 201 96 14 16 7 13 -26 -9 -148 -99 -412
-109 -593 -23 -304 145 -264 434 73 525 40 11 47 15 25 15 -16 0 -57 -8 -90
-18z"/>
<path d="M2491 458 c-26 -171 -28 -178 -47 -178 -21 0 -44 44 -100 185 -27 69
-53 124 -58 122 -5 -2 -34 -67 -66 -147 -31 -79 -65 -149 -75 -157 -17 -12
-14 -13 26 -13 29 0 39 3 30 9 -11 7 -11 16 4 55 l18 46 52 0 c52 0 53 0 69
-40 9 -22 16 -47 16 -55 0 -12 16 -15 82 -15 67 0 79 2 66 12 -14 11 -15 23
-7 83 17 132 16 131 69 18 27 -57 53 -103 57 -103 5 0 31 45 58 99 27 55 52
98 56 96 3 -3 9 -33 13 -67 16 -142 14 -138 57 -138 38 0 38 1 21 18 -14 14
-23 53 -36 148 -10 71 -21 135 -25 142 -5 8 -31 -35 -68 -110 l-61 -123 -61
124 c-34 69 -63 126 -65 128 -2 2 -13 -61 -25 -139z m-188 -10 l16 -48 -45 0
-44 0 20 53 c11 28 20 54 20 57 0 15 20 -22 33 -62z"/>
<path d="M143 583 c15 -4 17 -20 17 -153 0 -109 -3 -150 -12 -154 -7 -3 27 -5
75 -3 83 2 90 4 113 30 35 41 32 82 -9 121 l-33 31 19 33 c16 27 18 38 8 58
-15 33 -49 44 -129 43 -37 -1 -59 -3 -49 -6z m136 -47 c12 -26 12 -33 0 -55
-9 -16 -25 -27 -42 -29 -27 -3 -27 -3 -27 58 0 61 0 61 27 58 19 -2 32 -12 42
-32z m2 -125 c57 -58 24 -148 -45 -122 -25 10 -26 14 -26 81 0 64 2 70 21 70
11 0 34 -13 50 -29z"/>
<path d="M472 518 c-17 -40 -42 -104 -57 -143 -15 -38 -36 -78 -47 -87 -20
-18 -19 -18 23 -18 29 0 39 3 30 9 -11 7 -11 16 4 55 l18 46 52 0 c52 0 53 0
69 -40 9 -22 16 -47 16 -55 0 -12 17 -15 88 -15 52 0 82 4 73 9 -9 6 -15 41
-18 115 -3 58 -4 106 -1 106 3 0 56 -52 118 -115 63 -63 118 -115 122 -115 4
0 8 64 8 143 0 144 3 159 30 170 8 3 -12 5 -45 5 -33 0 -50 -3 -39 -5 25 -5
34 -50 34 -167 l0 -71 -125 125 -125 125 0 -135 c0 -155 -5 -180 -31 -180 -26
0 -47 37 -105 185 -27 69 -52 125 -56 125 -3 0 -20 -33 -36 -72z m50 -65 c10
-26 16 -48 14 -51 -2 -2 -22 -2 -44 0 l-39 3 20 53 c11 29 22 50 26 47 3 -3
13 -27 23 -52z"/>
<path d="M1048 580 c21 -9 22 -14 22 -144 0 -109 -3 -138 -16 -150 -14 -15
-10 -16 43 -15 32 1 51 3 42 6 -24 6 -42 153 -19 153 6 0 10 -3 10 -7 0 -5 31
-41 68 -80 65 -70 70 -73 112 -73 l45 0 -32 16 c-31 16 -163 154 -163 172 0
13 120 116 144 124 13 3 1 6 -31 7 -39 1 -51 -2 -47 -12 5 -14 -91 -127 -108
-127 -16 0 -3 121 14 131 8 5 -11 9 -47 8 -46 0 -55 -2 -37 -9z"/>
<path d="M1602 583 c25 -6 32 -58 26 -185 -4 -78 -10 -113 -19 -119 -9 -5 9
-8 46 -8 33 0 53 3 45 6 -27 10 -30 26 -30 153 0 127 3 143 30 153 8 3 -14 5
-50 5 -36 0 -57 -2 -48 -5z"/>
<path d="M1775 578 c-29 -16 -35 -28 -35 -69 0 -31 8 -44 60 -92 68 -64 77
-95 34 -123 -32 -22 -73 -10 -92 26 -12 25 -13 24 -10 -10 l3 -35 57 -3 c51
-3 61 0 83 22 18 18 25 36 25 62 0 33 -8 45 -65 100 -36 34 -65 67 -65 73 0
17 38 51 58 51 21 0 48 -19 55 -40 3 -8 6 0 6 18 1 32 1 32 -46 32 -27 0 -57
-6 -68 -12z"/>
<path d="M1928 579 c23 -9 23 -10 20 -149 -2 -112 -6 -143 -18 -150 -10 -7 19
-10 88 -10 97 0 102 1 102 21 0 17 -3 19 -14 10 -8 -7 -34 -11 -58 -9 l-43 3
-3 142 c-2 128 -1 142 15 146 10 3 -11 5 -47 5 -50 1 -60 -1 -42 -9z"/>
</g>
</svg>
